<mxfile host="app.diagrams.net" modified="2020-09-07T08:01:28.187Z" agent="5.0 (Windows NT 10.0; WOW64) AppleWebKit/537.36 (KHTML, like Gecko) Chrome/84.0.4147.135 Safari/537.36" etag="1Ss8Ga1agoxzEvXM0fU7" version="13.1.1" type="github">
  <diagram id="0-RFVuraUf7fSvYIvw6F" name="Page-1">
    <mxGraphModel dx="2249" dy="713" grid="1" gridSize="10" guides="1" tooltips="1" connect="1" arrows="1" fold="1" page="1" pageScale="1" pageWidth="827" pageHeight="1169" math="0" shadow="0">
      <root>
        <mxCell id="0" />
        <mxCell id="1" parent="0" />
        <mxCell id="lWT4EILyouGZOtEGmvAP-1" value="开始" style="ellipse;whiteSpace=wrap;html=1;" parent="1" vertex="1">
          <mxGeometry x="100" y="70" width="100" height="40" as="geometry" />
        </mxCell>
        <mxCell id="lWT4EILyouGZOtEGmvAP-3" value="结束" style="ellipse;whiteSpace=wrap;html=1;" parent="1" vertex="1">
          <mxGeometry x="100" y="900" width="100" height="43" as="geometry" />
        </mxCell>
        <mxCell id="dC0mSapoP9QAi4ytZOKZ-10" value="" style="edgeStyle=orthogonalEdgeStyle;rounded=0;orthogonalLoop=1;jettySize=auto;html=1;" edge="1" parent="1" source="lWT4EILyouGZOtEGmvAP-7" target="dC0mSapoP9QAi4ytZOKZ-1">
          <mxGeometry relative="1" as="geometry" />
        </mxCell>
        <mxCell id="lWT4EILyouGZOtEGmvAP-7" value="从socket获取数据A" style="shape=parallelogram;perimeter=parallelogramPerimeter;whiteSpace=wrap;html=1;" parent="1" vertex="1">
          <mxGeometry x="90" y="150" width="120" height="60" as="geometry" />
        </mxCell>
        <mxCell id="lWT4EILyouGZOtEGmvAP-9" value="" style="endArrow=classic;html=1;exitX=0.5;exitY=1;exitDx=0;exitDy=0;entryX=0.5;entryY=0;entryDx=0;entryDy=0;" parent="1" source="lWT4EILyouGZOtEGmvAP-12" target="lWT4EILyouGZOtEGmvAP-3" edge="1">
          <mxGeometry width="50" height="50" relative="1" as="geometry">
            <mxPoint x="150" y="680" as="sourcePoint" />
            <mxPoint x="440" y="430" as="targetPoint" />
          </mxGeometry>
        </mxCell>
        <mxCell id="lWT4EILyouGZOtEGmvAP-11" value="" style="endArrow=classic;html=1;exitX=0.5;exitY=1;exitDx=0;exitDy=0;entryX=0.5;entryY=0;entryDx=0;entryDy=0;" parent="1" source="dC0mSapoP9QAi4ytZOKZ-11" target="lWT4EILyouGZOtEGmvAP-12" edge="1">
          <mxGeometry width="50" height="50" relative="1" as="geometry">
            <mxPoint x="150" y="600" as="sourcePoint" />
            <mxPoint x="150" y="640" as="targetPoint" />
          </mxGeometry>
        </mxCell>
        <mxCell id="lWT4EILyouGZOtEGmvAP-25" value="是" style="edgeLabel;html=1;align=center;verticalAlign=middle;resizable=0;points=[];" parent="lWT4EILyouGZOtEGmvAP-11" vertex="1" connectable="0">
          <mxGeometry x="-0.2667" y="1" relative="1" as="geometry">
            <mxPoint x="-1" as="offset" />
          </mxGeometry>
        </mxCell>
        <mxCell id="lWT4EILyouGZOtEGmvAP-12" value="入回执状态消息队列" style="rounded=0;whiteSpace=wrap;html=1;" parent="1" vertex="1">
          <mxGeometry x="90" y="600" width="120" height="60" as="geometry" />
        </mxCell>
        <mxCell id="lWT4EILyouGZOtEGmvAP-16" value="其他流程" style="rounded=0;whiteSpace=wrap;html=1;" parent="1" vertex="1">
          <mxGeometry x="300" y="790" width="120" height="60" as="geometry" />
        </mxCell>
        <mxCell id="lWT4EILyouGZOtEGmvAP-18" value="" style="endArrow=classic;html=1;exitX=0.5;exitY=1;exitDx=0;exitDy=0;entryX=0.5;entryY=0;entryDx=0;entryDy=0;" parent="1" source="lWT4EILyouGZOtEGmvAP-1" target="lWT4EILyouGZOtEGmvAP-7" edge="1">
          <mxGeometry width="50" height="50" relative="1" as="geometry">
            <mxPoint x="390" y="290" as="sourcePoint" />
            <mxPoint x="150" y="150" as="targetPoint" />
          </mxGeometry>
        </mxCell>
        <mxCell id="lWT4EILyouGZOtEGmvAP-27" value="" style="endArrow=classic;html=1;exitX=0.5;exitY=1;exitDx=0;exitDy=0;entryX=1;entryY=0.5;entryDx=0;entryDy=0;edgeStyle=orthogonalEdgeStyle;" parent="1" source="lWT4EILyouGZOtEGmvAP-16" target="lWT4EILyouGZOtEGmvAP-3" edge="1">
          <mxGeometry width="50" height="50" relative="1" as="geometry">
            <mxPoint x="270" y="850" as="sourcePoint" />
            <mxPoint x="320" y="800" as="targetPoint" />
          </mxGeometry>
        </mxCell>
        <mxCell id="dC0mSapoP9QAi4ytZOKZ-9" value="" style="edgeStyle=orthogonalEdgeStyle;rounded=0;orthogonalLoop=1;jettySize=auto;html=1;" edge="1" parent="1" source="dC0mSapoP9QAi4ytZOKZ-1" target="dC0mSapoP9QAi4ytZOKZ-7">
          <mxGeometry relative="1" as="geometry" />
        </mxCell>
        <mxCell id="dC0mSapoP9QAi4ytZOKZ-1" value="解析A的命令成系统对象" style="rounded=0;whiteSpace=wrap;html=1;" vertex="1" parent="1">
          <mxGeometry x="90" y="240" width="120" height="60" as="geometry" />
        </mxCell>
        <mxCell id="dC0mSapoP9QAi4ytZOKZ-4" value="&lt;span style=&quot;font-family: &amp;#34;times new roman&amp;#34; , serif ; font-size: 14px&quot;&gt;应答&lt;/span&gt;&lt;span lang=&quot;EN-US&quot; style=&quot;font-size: 10.5pt ; font-family: &amp;#34;times new roman&amp;#34; , serif&quot;&gt;CMPP_DELIVER&lt;br&gt;_RESP&lt;br&gt;&lt;/span&gt;" style="rounded=0;whiteSpace=wrap;html=1;" vertex="1" parent="1">
          <mxGeometry x="90" y="730" width="120" height="60" as="geometry" />
        </mxCell>
        <mxCell id="dC0mSapoP9QAi4ytZOKZ-12" value="否" style="edgeStyle=orthogonalEdgeStyle;rounded=0;orthogonalLoop=1;jettySize=auto;html=1;entryX=0.5;entryY=0;entryDx=0;entryDy=0;" edge="1" parent="1" source="dC0mSapoP9QAi4ytZOKZ-7" target="lWT4EILyouGZOtEGmvAP-16">
          <mxGeometry relative="1" as="geometry" />
        </mxCell>
        <mxCell id="dC0mSapoP9QAi4ytZOKZ-13" value="是" style="edgeStyle=orthogonalEdgeStyle;rounded=0;orthogonalLoop=1;jettySize=auto;html=1;" edge="1" parent="1" source="dC0mSapoP9QAi4ytZOKZ-7" target="dC0mSapoP9QAi4ytZOKZ-11">
          <mxGeometry relative="1" as="geometry" />
        </mxCell>
        <mxCell id="dC0mSapoP9QAi4ytZOKZ-7" value="&lt;span style=&quot;font-family: &amp;#34;times new roman&amp;#34; , serif ; font-size: 14px&quot;&gt;是否为&lt;/span&gt;&lt;span lang=&quot;EN-US&quot; style=&quot;font-size: 10.5pt ; font-family: &amp;#34;times new roman&amp;#34; , serif&quot;&gt;CMPP_DELIVER&lt;/span&gt;&lt;span style=&quot;font-family: &amp;#34;times new roman&amp;#34; , serif ; font-size: 14px&quot;&gt;&lt;br&gt;&lt;/span&gt;" style="rhombus;whiteSpace=wrap;html=1;" vertex="1" parent="1">
          <mxGeometry x="90" y="340" width="120" height="50" as="geometry" />
        </mxCell>
        <mxCell id="dC0mSapoP9QAi4ytZOKZ-16" style="edgeStyle=orthogonalEdgeStyle;rounded=0;orthogonalLoop=1;jettySize=auto;html=1;entryX=0.5;entryY=0;entryDx=0;entryDy=0;" edge="1" parent="1" source="dC0mSapoP9QAi4ytZOKZ-11" target="dC0mSapoP9QAi4ytZOKZ-14">
          <mxGeometry relative="1" as="geometry" />
        </mxCell>
        <mxCell id="dC0mSapoP9QAi4ytZOKZ-17" value="否" style="edgeLabel;html=1;align=center;verticalAlign=middle;resizable=0;points=[];" vertex="1" connectable="0" parent="dC0mSapoP9QAi4ytZOKZ-16">
          <mxGeometry x="0.117" y="23" relative="1" as="geometry">
            <mxPoint as="offset" />
          </mxGeometry>
        </mxCell>
        <mxCell id="dC0mSapoP9QAi4ytZOKZ-11" value="&lt;span style=&quot;font-family: &amp;#34;times new roman&amp;#34; , serif ; font-size: 14px&quot;&gt;类型是否为状态报告&lt;br&gt;&lt;/span&gt;" style="rhombus;whiteSpace=wrap;html=1;" vertex="1" parent="1">
          <mxGeometry x="90" y="460" width="120" height="50" as="geometry" />
        </mxCell>
        <mxCell id="dC0mSapoP9QAi4ytZOKZ-18" style="edgeStyle=orthogonalEdgeStyle;rounded=0;orthogonalLoop=1;jettySize=auto;html=1;entryX=0;entryY=0.5;entryDx=0;entryDy=0;" edge="1" parent="1" source="dC0mSapoP9QAi4ytZOKZ-14" target="dC0mSapoP9QAi4ytZOKZ-4">
          <mxGeometry relative="1" as="geometry" />
        </mxCell>
        <mxCell id="dC0mSapoP9QAi4ytZOKZ-14" value="入上行消息队列" style="rounded=0;whiteSpace=wrap;html=1;" vertex="1" parent="1">
          <mxGeometry x="-120" y="600" width="120" height="60" as="geometry" />
        </mxCell>
      </root>
    </mxGraphModel>
  </diagram>
</mxfile>
